<svg width="40" height="40" viewBox="0 0 40 40" fill="none" xmlns="http://www.w3.org/2000/svg">
<path d="M30.6072 9.06177L36.4746 3.25044C36.7237 3.00373 37.1358 3.04427 37.332 3.33482L38.6855 5.33865C38.8719 5.61466 38.7775 5.99138 38.4829 6.14677L31.262 9.95427C31.1401 10.0186 30.9987 10.0356 30.8649 10.0021C30.7312 9.96857 30.6146 9.88682 30.5374 9.77255C30.4644 9.66452 30.4314 9.53435 30.4441 9.40457C30.4569 9.27478 30.5146 9.15353 30.6072 9.06177ZM31.5776 14.0523C31.5995 14.1598 31.6604 14.2554 31.7486 14.3207C31.8367 14.3861 31.9459 14.4165 32.0551 14.4063L38.5225 13.8026C38.5847 13.7967 38.6451 13.7778 38.6996 13.7471C38.7541 13.7164 38.8015 13.6746 38.8387 13.6244C38.876 13.5741 38.9022 13.5166 38.9157 13.4555C38.9293 13.3945 38.9298 13.3312 38.9172 13.27L38.5314 11.3849C38.4755 11.1116 38.1848 10.9565 37.9266 11.0622L31.8451 13.5509C31.7491 13.5902 31.6698 13.6618 31.621 13.7534C31.5721 13.8449 31.5568 13.9507 31.5776 14.0523ZM26.7487 7.18951C26.8403 7.24992 26.9509 7.27442 27.0594 7.2583C27.1679 7.24218 27.2667 7.18658 27.3367 7.10216L31.4829 2.10216C31.5228 2.05401 31.5521 1.99799 31.5689 1.93775C31.5858 1.87751 31.5897 1.8144 31.5805 1.75253C31.5713 1.69066 31.5492 1.63143 31.5156 1.57868C31.482 1.52593 31.4376 1.48085 31.3855 1.44638L29.7797 0.386304C29.5469 0.232632 29.2317 0.328413 29.1239 0.585757L26.5834 6.64583C26.5433 6.74152 26.5379 6.84821 26.5681 6.94747C26.5983 7.04673 26.6622 7.13233 26.7487 7.18951Z" fill="#FFD469"/>
<path d="M17.0627 37.4869L15.8137 38.2173C14.7983 38.8111 13.494 38.4694 12.9002 37.454L9.5885 31.791C8.99475 30.7757 9.33647 29.4713 10.3518 28.8776L11.6008 28.1471C12.6162 27.5533 13.9205 27.8951 14.5143 28.9104L17.826 34.5734C18.4198 35.5887 18.078 36.8931 17.0627 37.4869Z" fill="#00B1FF"/>
<path d="M9.40647 31.9295L21.5089 25.3405L13.2356 12.3867L2.29569 20.5143C2.22514 20.5594 -0.73173 23.2648 2.51554 28.3493C5.7628 33.4338 9.40647 31.9295 9.40647 31.9295Z" fill="#0096D1"/>
<path d="M28.323 11.8926C31.9429 17.5604 34.136 23.7006 32.6216 24.6678C31.1071 25.635 26.4587 21.0631 22.8387 15.3952C19.2188 9.7273 17.0258 3.5873 18.5402 2.62004C20.0545 1.65277 24.703 6.22472 28.323 11.8926Z" fill="#727272"/>
<path d="M26.6179 19.7582C27.8725 18.9569 27.513 16.1522 25.815 13.4937C24.117 10.8353 21.7235 9.32977 20.4689 10.1311C19.2143 10.9324 19.5738 13.7371 21.2718 16.3956C22.9698 19.054 25.3633 20.5595 26.6179 19.7582Z" fill="#B2B2B2"/>
<path d="M32.5554 24.7112C31.2326 25.556 26.7395 20.8849 23.1196 15.217C19.4997 9.54912 17.1512 3.50826 18.474 2.66342C18.5502 2.61475 18.6357 2.58264 18.729 2.5649C18.105 2.55061 17.4936 2.87608 17.1318 3.56795C15.5374 6.61701 11.4684 13.3819 11.4684 13.3819C11.4684 13.3819 9.44926 16.1006 12.9987 21.658C16.5482 27.2155 19.975 26.52 19.975 26.52C19.975 26.52 27.7596 25.7248 31.18 25.5614C31.9897 25.5227 32.5537 25.0731 32.788 24.4665C32.7258 24.5689 32.6489 24.6515 32.5554 24.7112Z" fill="#D1D1D1"/>
<path d="M4.13275 24.0768C3.94775 24.077 3.76567 24.0306 3.60338 23.9418C3.4411 23.8529 3.30387 23.7246 3.20439 23.5686C2.87728 23.0564 3.02728 22.3761 3.53947 22.049L8.06377 19.1594C8.57588 18.8324 9.25627 18.9823 9.58338 19.4945C9.91049 20.0067 9.76049 20.687 9.2483 21.0141L4.724 23.9037C4.54758 24.0168 4.34235 24.0769 4.13275 24.0768Z" fill="#00B1FF"/>
</svg>
